<svg width="14" height="14" viewBox="0 0 14 14" fill="none" xmlns="http://www.w3.org/2000/svg">
<g clip-path="url(#clip0_997_4585)">
<path d="M1.4585 6.99999C1.4585 4.38763 1.4585 3.08144 2.27005 2.26989C3.08161 1.45833 4.3878 1.45833 7.00016 1.45833C9.61253 1.45833 10.9187 1.45833 11.7303 2.26989C12.5418 3.08144 12.5418 4.38763 12.5418 6.99999C12.5418 9.61236 12.5418 10.9185 11.7303 11.7301C10.9187 12.5417 9.61253 12.5417 7.00016 12.5417C4.3878 12.5417 3.08161 12.5417 2.27005 11.7301C1.4585 10.9185 1.4585 9.61236 1.4585 6.99999Z" stroke="#FF7000" stroke-width="1.5"/>
<circle cx="9.625" cy="4.375" r="0.875" stroke="#FF7000" stroke-width="1.5"/>
<path d="M1.16675 8.24566C1.55562 8.19322 1.94876 8.1673 2.34257 8.16822C4.00853 8.13553 5.63369 8.61754 6.92806 9.52827C8.12852 10.3729 8.97203 11.5353 9.33341 12.8333" stroke="#FF7000" stroke-width="1.5" stroke-linejoin="round"/>
<path d="M7.5835 10.5C8.57605 9.72612 9.64528 9.3291 10.7255 9.33336C11.338 9.33273 11.9476 9.46261 12.5418 9.71932" stroke="#FF7000" stroke-width="1.5" stroke-linejoin="round"/>
</g>
<defs>
<clipPath id="clip0_997_4585">
<rect width="14" height="14" fill="white"/>
</clipPath>
</defs>
</svg>
