<svg width="16" height="16" viewBox="0 0 16 16" fill="none" xmlns="http://www.w3.org/2000/svg">
<g clip-path="url(#clip0_525_9297)">
<path d="M1.66699 7.99935C1.66699 5.01379 1.66699 3.52101 2.59449 2.59351C3.52198 1.66602 5.01476 1.66602 8.00033 1.66602C10.9859 1.66602 12.4787 1.66602 13.4062 2.59351C14.3337 3.52101 14.3337 5.01379 14.3337 7.99935C14.3337 10.9849 14.3337 12.4777 13.4062 13.4052C12.4787 14.3327 10.9859 14.3327 8.00033 14.3327C5.01476 14.3327 3.52198 14.3327 2.59449 13.4052C1.66699 12.4777 1.66699 10.9849 1.66699 7.99935Z" stroke="white" stroke-width="1.5"/>
<circle cx="11" cy="5" r="1" stroke="white" stroke-width="1.5"/>
<path d="M1.3335 9.42232C1.77792 9.36238 2.22723 9.33277 2.67729 9.33381C4.58125 9.29645 6.43857 9.84733 7.91786 10.8882C9.28981 11.8535 10.2538 13.1819 10.6668 14.6654" stroke="white" stroke-width="1.5" stroke-linejoin="round"/>
<path d="M8.66699 11.9993C9.80134 11.1149 11.0233 10.6612 12.2578 10.6661C12.9578 10.6653 13.6545 10.8138 14.3337 11.1071" stroke="white" stroke-width="1.5" stroke-linejoin="round"/>
</g>
<defs>
<clipPath id="clip0_525_9297">
<rect width="16" height="16" fill="white"/>
</clipPath>
</defs>
</svg>
