<svg width="24" height="24" viewBox="0 0 24 24" fill="none" xmlns="http://www.w3.org/2000/svg">
<circle cx="12" cy="12" r="12" fill="#F8B6B6"/>
<g clip-path="url(#clip0_77_2564)">
<path d="M13.6964 5.69953C12.8967 4.89984 12.4969 4.5 12 4.5C11.5031 4.5 11.1033 4.89984 10.3036 5.69953C9.82374 6.1794 9.34821 6.40219 8.66406 6.40219C8.0667 6.40219 7.21682 6.28634 6.75 6.75708C6.28687 7.22411 6.40221 8.07049 6.40221 8.66404C6.40221 9.34821 6.1794 9.82374 5.69951 10.3036C4.89984 11.1033 4.50001 11.5031 4.5 12C4.50001 12.4968 4.89985 12.8967 5.69953 13.6964C6.23712 14.2339 6.40221 14.5811 6.40221 15.3359C6.40221 15.9333 6.28636 16.7832 6.75712 17.25C7.22414 17.7131 8.07051 17.5978 8.66405 17.5978C9.39262 17.5978 9.74346 17.7403 10.2634 18.2603C10.7062 18.703 11.2997 19.5 12 19.5C12.7003 19.5 13.2938 18.703 13.7366 18.2603C14.2565 17.7403 14.6074 17.5978 15.336 17.5978C15.9295 17.5978 16.7759 17.7131 17.2429 17.25M18.3005 10.3036C19.1002 11.1033 19.5 11.5031 19.5 12C19.5 12.4968 19.1001 12.8967 18.3005 13.6964C17.7629 14.2339 17.5978 14.5811 17.5978 15.3359C17.5978 15.9333 17.7136 16.7832 17.2429 17.25M17.2429 17.25H17.25" stroke="white" stroke-width="1.5" stroke-linecap="round" stroke-linejoin="round"/>
<path d="M9 10.7308C9 10.7308 10.6875 10.5 12 13.5C12 13.5 15.7941 6 19.5 4.5" stroke="white" stroke-width="1.5" stroke-linecap="round" stroke-linejoin="round"/>
</g>
<defs>
<clipPath id="clip0_77_2564">
<rect width="18" height="18" fill="white" transform="translate(3 3)"/>
</clipPath>
</defs>
</svg>
