<svg width="37" height="36" viewBox="0 0 37 36" fill="none" xmlns="http://www.w3.org/2000/svg">
<circle cx="18.5" cy="18" r="18" fill="#BBE7B7"/>
<path d="M18.498 6.75012C15.1142 6.75012 12.9202 9.02149 10.3254 9.84939C9.27037 10.186 8.74284 10.3543 8.52935 10.5916C8.31586 10.8289 8.25334 11.1756 8.12831 11.869C6.79036 19.2894 9.71476 26.1496 16.6891 28.8198C17.4384 29.1067 17.8131 29.2501 18.5017 29.2501C19.1902 29.2501 19.5649 29.1067 20.3142 28.8198C27.2881 26.1496 30.2097 19.2893 28.8713 11.869C28.7463 11.1755 28.6837 10.8287 28.4702 10.5914C28.2566 10.3541 27.7291 10.1859 26.6742 9.84948C24.0784 9.02166 21.8819 6.75012 18.498 6.75012Z" fill="white"/>
<path d="M18.5 12.3751L18.5 14.6251" stroke="#BBE7B7" stroke-width="1.5" stroke-linecap="round"/>
</svg>
