<svg width="16" height="17" viewBox="0 0 16 17" fill="none" xmlns="http://www.w3.org/2000/svg">
<path d="M6.66683 14.2117C4.38112 14.9832 2.47635 14.2117 1.3335 11.8333" stroke="#333333" stroke-width="1.5" stroke-linecap="round" stroke-linejoin="round"/>
<path d="M6.66683 15.1667V13.0052C6.66683 12.6064 6.78946 12.2598 6.98711 11.9466C7.12268 11.7318 7.02982 11.4269 6.78489 11.3596C4.75612 10.8019 3.3335 9.90516 3.3335 6.93071C3.3335 6.15741 3.58687 5.43038 4.03224 4.79761C4.14307 4.64013 4.19849 4.56139 4.21181 4.49008C4.22514 4.41876 4.20197 4.32569 4.15565 4.13955C3.96709 3.38195 3.97931 2.57747 4.26231 1.85216C4.26231 1.85216 4.84711 1.66162 6.17815 2.49314C6.48205 2.68299 6.63399 2.77791 6.76782 2.79915C6.90164 2.82038 7.08055 2.77591 7.43839 2.68695C7.92771 2.56531 8.43189 2.50001 9.00016 2.50001C9.56844 2.50001 10.0726 2.56531 10.5619 2.68695C10.9198 2.77591 11.0987 2.82038 11.2325 2.79915C11.3663 2.77791 11.5183 2.68299 11.8222 2.49314C13.1532 1.66162 13.738 1.85216 13.738 1.85216C14.021 2.57747 14.0332 3.38195 13.8447 4.13955C13.7984 4.32569 13.7752 4.41876 13.7885 4.49008C13.8018 4.56139 13.8573 4.64013 13.9681 4.79761C14.4135 5.43038 14.6668 6.15741 14.6668 6.93071C14.6668 9.90516 13.2442 10.8019 11.2154 11.3596C10.9705 11.4269 10.8776 11.7318 11.0132 11.9466C11.2109 12.2598 11.3335 12.6064 11.3335 13.0052V15.1667" stroke="#333333" stroke-width="1.5" stroke-linecap="round" stroke-linejoin="round"/>
</svg>
