<svg width="12" height="12" viewBox="0 0 12 12" fill="none" xmlns="http://www.w3.org/2000/svg">
<g clip-path="url(#clip0_46_921)">
<path d="M6.86382 1.72209L7.74372 3.49644C7.86371 3.74343 8.18367 3.98035 8.45364 4.02572L10.0485 4.29288C11.0684 4.46426 11.3083 5.2103 10.5734 5.94625L9.33354 7.19636C9.12357 7.40807 9.00858 7.81637 9.07357 8.10873L9.42853 9.65625C9.7085 10.8812 9.06357 11.355 7.98869 10.7148L6.49386 9.82259C6.22389 9.66129 5.77894 9.66129 5.50397 9.82259L4.00913 10.7148C2.93925 11.355 2.28932 10.8761 2.56929 9.65625L2.92425 8.10873C2.98925 7.81637 2.87426 7.40807 2.66428 7.19636L1.42442 5.94625C0.6945 5.2103 0.929474 4.46426 1.94936 4.29288L3.54419 4.02572C3.80916 3.98035 4.12912 3.74343 4.24911 3.49644L5.12901 1.72209C5.60896 0.759304 6.38887 0.759304 6.86382 1.72209Z" fill="#F1D900" stroke="#FFB274" stroke-linecap="round" stroke-linejoin="round"/>
</g>
<defs>
<clipPath id="clip0_46_921">
<rect width="12" height="12" fill="white"/>
</clipPath>
</defs>
</svg>
