<svg width="32" height="32" viewBox="0 0 32 32" fill="none" xmlns="http://www.w3.org/2000/svg">
<circle cx="16" cy="16" r="16" fill="#C1CFFF"/>
<path d="M10.5776 19.4816C9.1628 20.324 5.45336 22.0441 7.71266 24.1966C8.81631 25.248 10.0455 26 11.5909 26H20.4091C21.9545 26 23.1837 25.248 24.2873 24.1966C26.5466 22.0441 22.8372 20.324 21.4224 19.4816C18.1048 17.5061 13.8952 17.5061 10.5776 19.4816Z" fill="white"/>
<path d="M20.5 10.5C20.5 12.9853 18.4853 15 16 15C13.5147 15 11.5 12.9853 11.5 10.5C11.5 8.01472 13.5147 6 16 6C18.4853 6 20.5 8.01472 20.5 10.5Z" fill="white"/>
</svg>
