<svg width="100" height="20" viewBox="0 0 100 20" fill="none" xmlns="http://www.w3.org/2000/svg">
<path d="M83.9276 0.703735H97.485V3.2236H87.2427V4.92621H97.2564V7.44607H87.2427V8.46764C87.2427 8.96707 87.357 9.26219 88.0657 9.26219H90.6263C92.6382 9.26219 95.2673 9.14868 97.5307 8.55844L98.0337 10.8513C96.0218 11.555 93.0726 11.7821 90.4663 11.7821H87.3341C85.1165 11.7821 83.9276 11.101 83.9276 9.03518V0.703735ZM81.71 14.0295H99.9999V16.5494H81.71V14.0295Z" fill="#3E3E3E"/>
<path d="M78.6693 13.6663L78.3949 20H75.2857V15.1192C75.2857 14.6879 75.0799 14.4608 74.6455 14.4608H64.7232V11.9183H77.1146C78.1206 11.9183 78.6693 12.6674 78.6693 13.6663ZM70.1416 7.10556L70.416 9.44381C69.0442 9.82974 67.581 10.0341 65.8892 10.0341H63.9459C62.0712 10.0341 61.4082 9.08059 61.4082 7.6504V0.317821H64.5175V6.90125C64.5175 7.30988 64.7004 7.53689 65.1348 7.53689H66.6208C67.6725 7.53689 69.1128 7.40068 70.1416 7.10556ZM74.234 0V10.7605H71.1933V5.62997H67.5582V3.0874H71.1933V0H74.234ZM79.0351 0V10.7605H75.9487V0H79.0351Z" fill="#3E3E3E"/>
<path d="M42.9356 15.1419L41.3124 12.8036C43.5529 11.3961 45.3362 10.0795 46.525 8.33145H41.381V5.76618H47.7138C47.851 5.26675 48.0796 4.60841 48.0796 4.01817C48.0796 3.79115 47.9882 3.56414 47.5995 3.56414H41.1523V0.99887H49.7257C50.9146 0.99887 51.509 1.67991 51.509 2.9739C51.509 4.33599 51.1889 5.72078 50.7317 6.90126H54.3439V0.22702H57.659V18.5471H54.3439V9.51192H50.5716V7.33258C49.2914 10.3746 46.7765 12.9171 42.9356 15.1419Z" fill="#3E3E3E"/>
<path d="M22.1991 3.2463V0.68103H33.1502C34.0647 0.68103 34.8648 1.31667 34.8648 2.27013C34.8648 3.58682 33.4245 5.31213 32.0756 6.49261C32.853 6.51531 33.3559 6.78773 33.8818 7.17365C34.9792 8.03631 35.8479 8.67195 36.9682 9.71622L35.0249 11.8275C33.6531 10.5108 33.2416 10.1248 32.2585 9.35299C31.5955 8.83086 30.8868 8.24062 29.8809 8.17252C27.4346 9.80702 24.5539 11.0556 22.3134 11.7366L21.3532 9.21679C24.6682 8.19522 29.1721 5.81156 30.8868 3.2463H22.1991ZM38.2713 14.0068V16.5494H19.9814V14.0068H38.2713Z" fill="#3E3E3E"/>
<path d="M1.78327 15.1419L0.160036 12.8036C2.40055 11.3961 4.18381 10.0795 5.37266 8.33145H0.228624V5.76618H6.5615C6.69868 5.26675 6.9273 4.60841 6.9273 4.01817C6.9273 3.79115 6.83585 3.56414 6.44719 3.56414H0V0.99887H8.57339C9.76223 0.99887 10.3567 1.67991 10.3567 2.9739C10.3567 3.08741 10.3567 3.20091 10.3567 3.31442C9.99086 8.24064 7.22451 12.0091 1.78327 15.1419ZM16.5066 18.5471H13.1916V0.22702H16.5066V18.5471Z" fill="#3E3E3E"/>
</svg>
