<svg width="20" height="21" viewBox="0 0 20 21" fill="none" xmlns="http://www.w3.org/2000/svg">
<path d="M2.10843 12.4951C1.93122 13.6226 2.72349 14.4052 3.69354 14.7952C7.4125 16.2905 12.5878 16.2905 16.3068 14.7952C17.2768 14.4052 18.0691 13.6226 17.8919 12.4951C17.783 11.8021 17.2445 11.2251 16.8455 10.6617C16.3229 9.91462 16.271 9.09978 16.2709 8.23286C16.2709 4.88261 13.4634 2.16669 10.0002 2.16669C6.53694 2.16669 3.72943 4.88261 3.72943 8.23286C3.72936 9.09978 3.67743 9.91462 3.15484 10.6617C2.75586 11.2251 2.21734 11.8021 2.10843 12.4951Z" stroke="#666666" stroke-width="1.5" stroke-linecap="round" stroke-linejoin="round"/>
<path d="M7.5 18C8.16345 18.5182 9.03956 18.8333 10 18.8333C10.9604 18.8333 11.8366 18.5182 12.5 18" stroke="#666666" stroke-width="1.5" stroke-linecap="round" stroke-linejoin="round"/>
</svg>
